<svg width="24" height="24" viewBox="0 0 24 24" fill="none" xmlns="http://www.w3.org/2000/svg">
<path d="M12.0006 17.5001C9.72876 17.5001 7.56441 16.8122 5.74235 15.5112C4.34044 14.5101 3.2158 13.1754 2.4896 11.6712C2.17334 11.0162 2.56427 10.2698 3.25804 10.0512C3.94691 9.8341 4.67259 10.2225 5.01745 10.8572C5.55364 11.8438 6.32933 12.7212 7.27711 13.3981C8.64936 14.3781 10.2824 14.8957 12 14.8957C13.7176 14.8957 15.3506 14.3775 16.7229 13.3981C17.6706 12.7212 18.4463 11.8439 18.9825 10.8572C19.3274 10.2226 20.0531 9.83411 20.742 10.0512C21.4358 10.2698 21.8267 11.0162 21.5106 11.6712C20.7844 13.1758 19.6597 14.5105 18.2576 15.5112C16.4356 16.8122 14.2712 17.5001 11.9994 17.5001H12.0006Z" fill="#BE6C2B"/>
</svg>
