<svg width="24" height="25" viewBox="0 0 24 25" fill="none" xmlns="http://www.w3.org/2000/svg">
<path d="M12 5.03796C7.45455 5.03796 3.57273 7.94063 2 12.038C3.57273 16.1353 7.45455 19.038 12 19.038C16.5455 19.038 20.4273 16.1353 22 12.038C20.4273 7.94063 16.5455 5.03796 12 5.03796ZM12 16.7046C9.49091 16.7046 7.45455 14.614 7.45455 12.038C7.45455 9.46196 9.49091 7.3713 12 7.3713C14.5091 7.3713 16.5455 9.46196 16.5455 12.038C16.5455 14.614 14.5091 16.7046 12 16.7046ZM12 9.23796C10.4909 9.23796 9.27273 10.4886 9.27273 12.038C9.27273 13.5873 10.4909 14.838 12 14.838C13.5091 14.838 14.7273 13.5873 14.7273 12.038C14.7273 10.4886 13.5091 9.23796 12 9.23796Z" fill="black" fill-opacity="0.36"/>
</svg>
