<svg width="24" height="24" viewBox="0 0 24 24" fill="none" xmlns="http://www.w3.org/2000/svg">
<mask id="mask0_1299_3346" style="mask-type:luminance" maskUnits="userSpaceOnUse" x="2" y="7" width="5" height="10">
<path fill-rule="evenodd" clip-rule="evenodd" d="M2.00098 7.40112H6.43335V16.7389H2.00098V7.40112Z" fill="white"/>
</mask>
<g mask="url(#mask0_1299_3346)">
<path fill-rule="evenodd" clip-rule="evenodd" d="M6.43335 14.0861L5.73722 16.6851L3.19269 16.7389C2.43234 15.3285 2.00098 13.7147 2.00098 12C2.00098 10.3418 2.40426 8.77792 3.11914 7.40112H3.11961L5.38492 7.81628L6.37734 10.068C6.16968 10.6737 6.05644 11.3235 6.05644 12C6.05644 12.7341 6.18953 13.4373 6.43335 14.0861" fill="#FBBB00"/>
</g>
<mask id="mask1_1299_3346" style="mask-type:luminance" maskUnits="userSpaceOnUse" x="12" y="10" width="10" height="10">
<path fill-rule="evenodd" clip-rule="evenodd" d="M12.2197 10.1318H21.9998V19.7983H12.2197V10.1318Z" fill="white"/>
</mask>
<g mask="url(#mask1_1299_3346)">
<path fill-rule="evenodd" clip-rule="evenodd" d="M21.8251 10.1318C21.94 10.7367 21.9998 11.3615 21.9998 12C21.9998 12.7159 21.9246 13.4143 21.7812 14.0878C21.2944 16.3802 20.0225 18.3818 18.2603 19.7983L18.2598 19.7978L15.4065 19.6523L15.0026 17.1313C16.1719 16.4456 17.0856 15.3725 17.567 14.0878H12.2197V10.1318H21.8251Z" fill="#518EF8"/>
</g>
<path fill-rule="evenodd" clip-rule="evenodd" d="M18.2586 19.7978L18.2591 19.7983C16.5454 21.1758 14.3684 22 11.9987 22C8.19043 22 4.87942 19.8714 3.19043 16.739L6.4311 14.0863C7.27567 16.34 9.44973 17.9445 11.9987 17.9445C13.0943 17.9445 14.1208 17.6483 15.0015 17.1313L18.2586 19.7978Z" fill="#28B446"/>
<path fill-rule="evenodd" clip-rule="evenodd" d="M18.3848 4.30227L15.1454 6.95437C14.2338 6.38461 13.1562 6.05547 12.002 6.05547C9.39531 6.05547 7.18043 7.73348 6.37832 10.0681L3.12059 7.40117H3.12012C4.78437 4.19223 8.13707 2 12.002 2C14.4282 2 16.653 2.86426 18.3848 4.30227" fill="#F14336"/>
</svg>
