<svg width="100" height="44" viewBox="0 0 100 44" fill="none" xmlns="http://www.w3.org/2000/svg">
<g clip-path="url(#clip0_1299_3323)">
<path d="M100 24.0043H97.4217C96.3171 24.0043 95.4217 23.1089 95.4217 22.0043V18.5123C95.4217 14.8777 92.3325 11.9198 88.5348 11.9198C84.7371 11.9198 81.6479 14.8777 81.6479 18.5123V22.0043C81.6479 23.1089 80.7525 24.0043 79.6479 24.0043H79.0696C77.965 24.0043 77.0696 23.1089 77.0696 22.0043V18.5123C77.0696 12.3746 82.2121 7.3811 88.5337 7.3811C94.8553 7.3811 99.999 12.3746 99.999 18.5123V24.0032C99.999 24.0038 99.9995 24.0043 100 24.0043Z" fill="#BE6C2B"/>
<path d="M19.0569 0H2C0.895431 0 0 0.895431 0 2V2.53874C0 3.64331 0.895429 4.53874 2 4.53874H19.0569C20.1615 4.53874 21.0569 3.64331 21.0569 2.53874V2C21.0569 0.895431 20.1615 0 19.0569 0Z" fill="#3B6637"/>
<path d="M21.0571 8.04183L23.6354 8.04183C24.74 8.04183 25.6354 8.93726 25.6354 10.0418L25.6354 13.5338C25.6354 17.1684 28.7246 20.1263 32.5223 20.1263C36.32 20.1263 39.4092 17.1684 39.4092 13.5338L39.4092 10.0418C39.4092 8.93726 40.3046 8.04183 41.4092 8.04183L41.9875 8.04183C43.0921 8.04183 43.9876 8.93727 43.9876 10.0418L43.9875 13.5338C43.9875 19.6716 38.845 24.665 32.5234 24.665C26.2018 24.665 21.0581 19.6716 21.0581 13.5338L21.0581 8.0429C21.0581 8.04231 21.0577 8.04183 21.0571 8.04183Z" fill="#3B6637"/>
<path d="M10.7314 1.60327H10.1531C9.04851 1.60327 8.15308 2.4987 8.15308 3.60327V22.1205C8.15308 23.225 9.04851 24.1205 10.1531 24.1205H10.7314C11.836 24.1205 12.7314 23.225 12.7314 22.1205V3.60327C12.7314 2.4987 11.836 1.60327 10.7314 1.60327Z" fill="#3B6637"/>
<path d="M70.0034 9.07751H69.425C68.3205 9.07751 67.425 9.97295 67.425 11.0775V22.1209C67.425 23.2255 68.3205 24.1209 69.425 24.1209H70.0034C71.108 24.1209 72.0034 23.2255 72.0034 22.1209V11.0775C72.0034 9.97295 71.108 9.07751 70.0034 9.07751Z" fill="#BE6C2B"/>
<path d="M81.7459 43.038C77.7867 43.038 74.0149 41.8393 70.8395 39.572C68.3156 37.7696 66.3074 35.3469 65.0476 32.6191C64.5829 31.6127 65.1776 30.4766 66.2348 30.1434L66.7825 29.9708C67.8323 29.64 68.9394 30.2298 69.4427 31.2087C70.3797 33.031 71.782 34.6523 73.5142 35.8894C75.9056 37.5973 78.7515 38.4993 81.7448 38.4993C84.7382 38.4993 87.5841 37.5962 89.9755 35.8894C91.7077 34.6523 93.11 33.031 94.047 31.2087C94.5503 30.2298 95.6574 29.64 96.7072 29.9708L97.255 30.1434C98.3122 30.4766 98.9069 31.6126 98.4423 32.619C97.1826 35.3476 95.1743 37.7704 92.6502 39.572C89.4749 41.8393 85.703 43.038 81.7438 43.038H81.7459Z" fill="#BE6C2B"/>
<path d="M51.5335 24.0036C51.5338 24.004 51.5336 24.0046 51.5331 24.0046H48.2932C47.5547 24.0046 46.9561 23.4059 46.9561 22.6674V18.5126C46.9561 12.3748 52.0986 7.38135 58.4202 7.38135C59.5457 7.38135 60.6662 7.54492 61.7393 7.86133C62.9495 8.21817 63.3725 9.62596 62.7767 10.7382C62.1868 11.8394 60.8119 12.2179 59.5794 12.0143C59.1973 11.9512 58.8093 11.919 58.4202 11.919C54.6236 11.919 51.5333 14.8769 51.5333 18.5115V24.0033C51.5333 24.0034 51.5334 24.0035 51.5335 24.0036Z" fill="#3B6637"/>
<ellipse cx="69.7142" cy="2.76837" rx="2.76837" ry="2.76837" fill="#BE6C2B"/>
</g>
<defs>
<clipPath id="clip0_1299_3323">
<rect width="100" height="43.038" fill="white"/>
</clipPath>
</defs>
</svg>
